<svg width="75" height="27" viewBox="0 0 75 27" fill="none" xmlns="http://www.w3.org/2000/svg">
<path fill-rule="evenodd" clip-rule="evenodd" d="M4.52055 25.2987C6.19326 26.408 8.15983 27 10.1716 27H19.5101C19.9684 27 20.3402 26.6327 20.3431 26.1786L20.3431 26.1733L20.3431 16.9054C20.3431 14.9089 19.7466 12.9572 18.6289 11.2971C17.5113 9.6371 15.9227 8.34325 14.0641 7.57921C12.2055 6.81518 10.1603 6.61527 8.1872 7.00477C6.21411 7.39428 4.40171 8.35569 2.97919 9.76745C1.55667 11.1792 0.58792 12.9779 0.195448 14.936C-0.197024 16.8942 0.00440746 18.9239 0.77427 20.7684C1.54413 22.613 2.84785 24.1895 4.52055 25.2987ZM15.2574 16.9054C15.2574 15.9071 14.9591 14.9313 14.4002 14.1013C13.8414 13.2712 13.0471 12.6243 12.1178 12.2423C11.1885 11.8603 10.1659 11.7603 9.17939 11.9551C8.19284 12.1498 7.28664 12.6305 6.57538 13.3364C5.86412 14.0423 5.37975 14.9416 5.18351 15.9207C4.98728 16.8998 5.08799 17.9146 5.47292 18.8369C5.85785 19.7592 6.50971 20.5475 7.34606 21.1021C8.18242 21.6567 9.1657 21.9527 10.1716 21.9527L14.4243 21.9527C14.8844 21.9527 15.2574 21.5826 15.2574 21.126L15.2574 16.9054Z" fill="black"/>
<path d="M28.0229 27L24.0196 27V0H28.0229V27Z" fill="black"/>
<path d="M35.7843 27H31.781V7.86486H35.7843V27Z" fill="black"/>
<path d="M59.1732 7.5056V26.4192H55.1539V24.9138C53.4369 26.2262 51.2907 26.9982 48.9493 26.9982C43.2911 26.9982 38.7255 22.4821 38.7255 16.8852C38.7255 14.1832 39.7791 11.6743 41.7302 9.74435C43.6423 7.85299 46.2178 6.81081 48.9493 6.81081C51.2907 6.81081 53.4369 7.58279 55.1539 8.89517V7.5056H59.1732ZM48.9493 22.9839C52.3443 22.9839 55.1148 20.2819 55.1148 16.8852C55.1148 13.5271 52.3443 10.7865 48.9493 10.7865C47.3104 10.7865 45.7495 11.4427 44.5788 12.6007C43.4082 13.7201 42.7838 15.264 42.7838 16.8852C42.7838 20.2819 45.5544 22.9839 48.9493 22.9839Z" fill="black"/>
<path d="M74.9845 20.4381C75.1015 22.1365 74.5552 23.6804 73.4236 24.877C72.1749 26.228 70.2628 27 68.1556 27C67.9995 27 67.8824 27 67.7263 27C65.9313 27 62.8876 26.1508 60.5853 22.7927L63.9412 20.5539C65.6191 23.0243 67.5702 23.0243 67.8044 23.0243L67.9605 22.9857H68.0775C69.0531 23.0243 69.9506 22.6769 70.4969 22.1365C70.8481 21.7891 70.9652 21.3259 70.9261 20.7469C70.8481 19.7433 69.2482 19.2029 67.2971 18.624L67.0239 18.5468C63.3168 17.4274 61.3657 15.536 61.2877 12.9113C61.1706 10.3251 62.8485 8.08639 65.5411 7.19861C67.9214 6.38802 70.4188 6.69682 72.37 8.12499C73.0724 8.62678 73.6967 9.24436 74.2821 10.0163L71.0432 12.4095C70.731 11.9849 70.3408 11.6375 69.9896 11.3673C69.0921 10.7111 67.9605 10.5953 66.8288 10.9813C66.1264 11.2129 65.2679 11.8305 65.3069 12.7569C65.346 13.4903 66.3215 14.1465 68.1946 14.6868L68.4677 14.8026C69.5994 15.1114 71.0042 15.536 72.1749 16.2308C74.3211 17.5432 74.8674 19.2415 74.9845 20.4381Z" fill="black"/>
<path d="M33.8004 6.24324C32.6667 6.24324 31.781 5.36426 31.781 4.27433C31.781 3.1844 32.6667 2.27027 33.8004 2.27027C34.8986 2.27027 35.7843 3.1844 35.7843 4.27433C35.7843 5.36426 34.8986 6.24324 33.8004 6.24324Z" fill="black"/>
</svg>
