<svg width="151" height="151" viewBox="0 0 151 151" fill="none" xmlns="http://www.w3.org/2000/svg">
<path fill-rule="evenodd" clip-rule="evenodd" d="M33.5545 138.276C45.9704 146.572 60.5675 151 75.5 151H144.817C148.218 151 150.978 148.253 151 144.857L151 144.817L151 75.5C151 60.5675 146.572 45.9704 138.276 33.5545C129.98 21.1386 118.188 11.4615 104.393 5.74712C90.5968 0.0327118 75.4163 -1.46244 60.7707 1.45075C46.1251 4.36393 32.6723 11.5546 22.1135 22.1135C11.5546 32.6723 4.36392 46.1251 1.45074 60.7707C-1.46244 75.4163 0.0327146 90.5968 5.74713 104.393C11.4615 118.188 21.1386 129.98 33.5545 138.276ZM113.25 75.5C113.25 68.0338 111.036 60.7352 106.888 54.5272C102.74 48.3193 96.8442 43.4808 89.9463 40.6236C83.0484 37.7664 75.4581 37.0188 68.1354 38.4754C60.8126 39.932 54.0862 43.5273 48.8067 48.8067C43.5273 54.0862 39.932 60.8126 38.4754 68.1354C37.0188 75.4582 37.7664 83.0484 40.6236 89.9463C43.4808 96.8442 48.3193 102.74 54.5273 106.888C60.7352 111.036 68.0338 113.25 75.5 113.25L107.067 113.25C110.482 113.25 113.25 110.482 113.25 107.067L113.25 75.5Z" fill="#0066FF"/>
</svg>
